P2
64
64
255
255 149 110 89 78 75 76 78 81 84 87 90 93 95 97 99 101 103 105 107 108 109 111 112 113 114 115 116 117 118 119 120 120 121 122 122 123 123 124 124 125 125 126 126 127 127 127 128 128 129 129 130 130 131 131 132 132 133 134 135 136 137 139 140 149 132 100 82 73 72 75 78 81 84 87 90 93 95 97 100 102 103 105 107 108 110 111 112 113 114 115 116 117 118 119 120 120 121 122 122 123 123 124 124 125 125 126 126 127 127 127 128 128 129 129 130 130 131 131 132 132 133 134 134 135 137 138 143 110 100 78 64 60 68 73 77 81 85 88 90 93 95 98 100 102 103 105 107 108 110 111 112 113 114 115 116 117 118 119 120 120 121 122 122 123 123 124 124 125 125 126 126 127 127 127 128 128 129 129 130 130 130 131 131 132 133 133 134 135 136 137 138 89 82 64 0 54 66 73 78 82 85 88 91 93 96 98 100 102 104 105 107 108 110 111 112 113 114 115 116 117 118 119 120 120 121 122 122 123 123 124 124 125 125 126 126 127 127 127 128 128 129 129 130 130 130 131 131 132 132 133 134 134 135 136 136 78 73 60 54 55 67 74 78 82 86 89 92 94 96 98 100 102 104 106 107 109 110 111 112 113 115 116 116 117 118 119 120 120 121 122 122 123 123 124 124 125 125 126 126 127 127 127 128 128 129 129 129 130 130 131 131 132 132 133 133 134 134 135 135 75 72 68 65 67 71 76 80 84 87 90 92 95 97 99 101 103 104 106 107 109 110 111 113 114 115 116 117 117 118 119 120 120 121 122 122 123 123 124 124 125 125 126 126 127 127 127 128 128 129 129 129 130 130 131 131 131 132 132 133 133 134 134 134 75 75 73 73 73 76 79 82 86 88 91 93 96 98 100 102 103 105 106 108 109 110 112 113 114 115 116 117 118 118 119 120 120 121 122 122 123 123 124 124 125 125 126 126 127 127 127 128 128 128 129 129 130 130 130 131 131 132 132 132 133 133 133 133 78 78 77 77 78 80 82 85 88 90 92 95 97 99 101 102 104 105 107 108 110 111 112 113 114 115 116 117 118 118 119 120 121 121 122 122 123 123 124 124 125 125 126 126 127 127 127 128 128 128 129 129 129 130 130 131 131 131 132 132 132 132 133 133 81 81 81 81 82 84 86 88 90 92 94 96 98 100 101 103 105 106 107 109 110 111 112 113 114 115 116 117 118 119 119 120 121 121 122 122 123 123 124 124 125 125 126 126 126 127 127 128 128 128 129 129 129 130 130 130 131 131 131 131 132 132 132 132 84 84 84 85 86 87 88 90 92 94 95 97 99 101 102 104 105 107 108 109 110 112 113 114 115 115 116 117 118 119 119 120 121 121 122 122 123 123 124 124 125 125 126 126 126 127 127 128 128 128 129 129 129 129 130 130 130 131 131 131 131 131 132 132 87 87 87 88 89 90 91 92 94 95 97 99 100 102 103 105 106 107 109 110 111 112 113 114 115 116 117 117 118 119 120 120 121 121 122 123 123 124 124 124 125 125 126 126 126 127 127 127 128 128 128 129 129 129 130 130 130 130 131 131 131 131 131 131 90 90 90 91 91 92 93 94 96 97 99 100 101 103 104 105 107 108 109 110 111 112 113 114 115 116 117 118 118 119 120 120 121 121 122 123 123 124 124 124 125 125 126 126 126 127 127 127 128 128 128 129 129 129 129 130 130 130 130 130 131 131 131 131 92 92 93 93 94 95 95 96 98 99 100 101 103 104 105 106 108 109 110 111 112 113 114 115 115 116 117 118 119 119 120 120 121 122 122 123 123 124 124 124 125 125 126 126 126 127 127 127 128 128 128 128 129 129 129 129 130 130 130 130 130 130 130 130 95 95 95 95 96 97 97 98 99 100 102 103 104 105 106 107 108 109 110 111 112 113 114 115 116 117 117 118 119 119 120 121 121 122 122 123 123 124 124 124 125 125 126 126 126 127 127 127 127 128 128 128 129 129 129 129 129 130 130 130 130 130 130 130 97 97 97 98 98 99 99 100 101 102 103 104 105 106 107 108 109 110 111 112 113 114 115 115 116 117 118 118 119 120 120 121 121 122 122 123 123 124 124 124 125 125 126 126 126 127 127 127 127 128 128 128 128 129 129 129 129 129 130 130 130 130 130 130 99 99 99 100 100 100 101 102 103 103 104 105 106 107 108 109 110 111 112 113 113 114 115 116 116 117 118 118 119 120 120 121 121 122 122 123 123 124 124 124 125 125 126 126 126 126 127 127 127 128 128 128 128 128 129 129 129 129 129 129 129 130 130 130 101 101 101 101 102 102 103 103 104 105 106 106 107 108 109 110 111 111 112 113 114 115 115 116 117 117 118 119 119 120 120 121 121 122 122 123 123 124 124 124 125 125 125 126 126 126 127 127 127 127 128 128 128 128 129 129 129 129 129 129 129 129 129 129 103 103 103 103 103 104 104 105 105 106 107 108 108 109 110 111 111 112 113 114 114 115 116 116 117 118 118 119 119 120 121 121 122 122 122 123 123 124 124 124 125 125 125 126 126 126 127 127 127 127 128 128 128 128 128 129 129 129 129 129 129 129 129 129 104 104 104 105 105 105 106 106 107 107 108 109 109 110 111 111 112 113 113 114 115 115 116 117 117 118 119 119 120 120 121 121 122 122 123 123 123 124 124 124 125 125 125 126 126 126 127 127 127 127 127 128 128 128 128 128 128 129 129 129 129 129 129 129 106 106 106 106 106 107 107 107 108 108 109 110 110 111 111 112 113 113 114 115 115 116 117 117 118 118 119 119 120 120 121 121 122 122 123 123 123 124 124 124 125 125 125 126 126 126 126 127 127 127 127 128 128 128 128 128 128 128 129 129 129 129 129 129 107 107 107 107 108 108 108 109 109 110 110 111 111 112 112 113 113 114 115 115 116 116 117 117 118 118 119 120 120 120 121 121 122 122 123 123 123 124 124 124 125 125 125 126 126 126 126 127 127 127 127 127 128 128 128 128 128 128 128 128 129 129 129 129 108 108 109 109 109 109 109 110 110 111 111 111 112 112 113 113 114 115 115 116 116 117 117 118 118 119 119 120 120 121 121 121 122 122 123 123 123 124 124 124 125 125 125 126 126 126 126 127 127 127 127 127 128 128 128 128 128 128 128 128 128 128 128 128 110 110 110 110 110 110 110 111 111 111 112 112 113 113 114 114 115 115 116 116 117 117 118 118 118 119 119 120 120 121 121 122 122 122 123 123 123 124 124 124 125 125 125 126 126 126 126 127 127 127 127 127 127 128 128 128 128 128 128 128 128 128 128 128 111 111 111 111 111 111 111 112 112 112 113 113 113 114 114 115 115 116 116 116 117 117 118 118 119 119 120 120 120 121 121 122 122 122 123 123 123 124 124 124 125 125 125 126 126 126 126 126 127 127 127 127 127 127 128 128 128 128 128 128 128 128 128 128 112 112 112 112 112 112 112 113 113 113 113 114 114 114 115 115 116 116 116 117 117 118 118 118 119 119 120 120 121 121 121 122 122 122 123 123 123 124 124 124 125 125 125 125 126 126 126 126 127 127 127 127 127 127 128 128 128 128 128 128 128 128 128 128 113 113 113 113 113 113 113 113 114 114 114 114 115 115 115 116 116 116 117 117 118 118 118 119 119 119 120 120 121 121 121 122 122 122 123 123 123 124 124 124 125 125 125 125 126 126 126 126 127 127 127 127 127 127 127 128 128 128 128 128 128 128 128 128 114 114 114 114 114 114 114 114 114 115 115 115 115 116 116 116 116 117 117 117 118 118 118 119 119 120 120 120 121 121 121 122 122 122 123 123 123 124 124 124 125 125 125 125 126 126 126 126 126 127 127 127 127 127 127 127 128 128 128 128 128 128 128 128 114 115 115 115 115 115 115 115 115 115 116 116 116 116 116 117 117 117 117 118 118 118 119 119 119 120 120 120 121 121 121 122 122 122 123 123 123 124 124 124 125 125 125 125 126 126 126 126 126 127 127 127 127 127 127 127 127 128 128 128 128 128 128 128 115 115 115 115 115 116 116 116 116 116 116 116 116 117 117 117 117 117 118 118 118 118 119 119 119 120 120 120 121 121 121 122 122 122 123 123 123 124 124 124 125 125 125 125 126 126 126 126 126 127 127 127 127 127 127 127 127 127 128 128 128 128 128 128 116 116 116 116 116 116 116 116 116 117 117 117 117 117 117 117 118 118 118 118 118 119 119 119 119 120 120 120 121 121 121 122 122 122 123 123 123 124 124 124 125 125 125 125 126 126 126 126 126 126 127 127 127 127 127 127 127 127 127 127 128 128 128 128 117 117 117 117 117 117 117 117 117 117 117 117 117 117 118 118 118 118 118 118 118 119 119 119 119 120 120 120 121 121 121 122 122 122 123 123 123 124 124 124 125 125 125 125 125 126 126 126 126 126 127 127 127 127 127 127 127 127 127 127 127 127 128 128 117 117 117 117 117 117 117 118 118 118 118 118 118 118 118 118 118 118 118 118 119 119 119 119 119 120 120 120 121 121 121 122 122 122 123 123 123 124 124 124 124 125 125 125 125 126 126 126 126 126 127 127 127 127 127 127 127 127 127 127 127 127 127 127 118 118 118 118 118 118 118 118 118 118 118 118 118 118 118 118 118 118 118 118 119 119 119 119 119 120 120 120 121 121 121 122 122 122 123 123 123 124 124 124 124 125 125 125 125 126 126 126 126 126 126 127 127 127 127 127 127 127 127 127 127 127 127 127 119 119 119 119 119 119 119 119 119 118 118 118 118 118 118 118 118 118 118 118 119 119 119 119 119 120 120 120 120 121 121 121 122 122 123 123 123 124 124 124 124 125 125 125 125 126 126 126 126 126 126 127 127 127 127 127 127 127 127 127 127 127 127 127 119 119 119 119 119 119 119 119 119 119 119 119 119 119 118 118 118 118 118 118 118 119 119 119 119 119 120 120 120 121 121 121 122 122 122 123 123 123 124 124 124 125 125 125 125 126 126 126 126 126 126 127 127 127 127 127 127 127 127 127 127 127 127 127 120 120 120 120 120 120 120 120 119 119 119 119 119 119 119 119 118 118 118 118 118 118 119 119 119 119 119 120 120 120 121 121 122 122 122 123 123 123 124 124 124 125 125 125 125 126 126 126 126 126 126 127 127 127 127 127 127 127 127 127 127 127 127 127 120 120 120 120 120 120 120 120 120 120 120 119 119 119 119 119 118 118 118 118 118 118 118 118 119 119 119 120 120 120 121 121 122 122 122 123 123 123 124 124 124 125 125 125 125 126 126 126 126 126 126 127 127 127 127 127 127 127 127 127 127 127 127 127 121 121 121 121 121 121 121 120 120 120 120 120 119 119 119 119 118 118 118 118 118 118 118 118 118 119 119 119 120 120 121 121 121 122 122 123 123 123 124 124 124 125 125 125 125 126 126 126 126 126 126 126 127 127 127 127 127 127 127 127 127 127 127 127 122 122 122 121 121 121 121 121 121 120 120 120 120 119 119 119 118 118 118 118 117 117 118 118 118 118 119 119 119 120 120 121 121 122 122 123 123 123 124 124 124 125 125 125 125 126 126 126 126 126 126 126 127 127 127 127 127 127 127 127 127 127 127 127 122 122 122 122 122 122 122 121 121 121 121 120 120 119 119 119 118 118 117 117 117 117 117 117 117 118 118 119 119 120 120 121 121 122 122 123 123 123 124 124 124 125 125 125 125 126 126 126 126 126 126 126 127 127 127 127 127 127 127 127 127 127 127 127 123 123 123 123 122 122 122 122 122 121 121 120 120 119 119 118 118 117 117 117 116 116 116 116 117 117 118 118 119 119 120 120 121 122 122 123 123 123 124 124 124 125 125 125 125 126 126 126 126 126 126 126 127 127 127 127 127 127 127 127 127 127 127 127 123 123 123 123 123 123 123 122 122 122 121 121 120 120 119 118 118 117 116 116 116 116 116 116 116 117 117 118 118 119 120 120 121 121 122 123 123 123 124 124 124 125 125 125 125 126 126 126 126 126 126 127 127 127 127 127 127 127 127 127 127 127 127 127 124 124 124 124 124 123 123 123 123 122 122 121 120 120 119 118 117 117 116 115 115 115 115 115 115 116 116 117 118 119 119 120 121 121 122 123 123 123 124 124 124 125 125 125 125 126 126 126 126 126 126 127 127 127 127 127 127 127 127 127 127 127 127 127 125 125 124 124 124 124 124 123 123 123 122 122 121 120 119 118 117 116 115 114 114 113 113 114 114 115 116 117 118 118 119 120 121 121 122 123 123 124 124 124 125 125 125 125 126 126 126 126 126 126 126 127 127 127 127 127 127 127 127 127 127 127 127 127 125 125 125 125 125 125 124 124 124 123 123 122 121 120 119 118 117 115 114 113 112 112 112 112 113 114 115 116 117 118 119 120 121 122 122 123 123 124 124 124 125 125 125 125 126 126 126 126 126 126 126 127 127 127 127 127 127 127 127 127 127 127 127 127 126 126 126 126 126 125 125 125 124 124 123 123 122 121 119 118 116 115 113 111 110 110 110 110 111 113 114 116 117 118 119 120 121 122 122 123 123 124 124 125 125 125 125 126 126 126 126 126 126 126 127 127 127 127 127 127 127 127 127 127 127 127 127 127 127 127 127 126 126 126 126 126 125 125 124 123 122 121 120 118 116 114 112 110 108 107 107 108 110 111 113 115 117 118 119 120 121 122 123 123 124 124 124 125 125 125 125 126 126 126 126 126 126 126 127 127 127 127 127 127 127 127 127 127 127 127 127 127 127 127 127 127 127 127 127 126 126 126 125 124 123 122 121 119 116 113 110 107 105 103 104 105 108 110 113 115 117 118 119 121 121 122 123 123 124 124 125 125 125 125 126 126 126 126 126 126 126 127 127 127 127 127 127 127 127 127 127 127 127 127 127 127 128 128 128 128 128 128 128 127 127 127 126 125 125 123 122 120 117 113 109 104 100 98 99 102 105 109 112 115 117 119 120 121 122 123 123 124 124 125 125 125 125 126 126 126 126 126 126 126 127 127 127 127 127 127 127 127 127 127 127 127 127 127 127 127 129 129 129 129 129 129 128 128 128 128 127 127 126 125 123 121 118 114 108 100 93 89 91 97 104 109 113 115 118 119 121 122 122 123 124 124 125 125 125 125 126 126 126 126 126 126 126 127 127 127 127 127 127 127 127 127 127 127 127 127 127 127 127 127 130 130 130 130 130 129 129 129 129 129 129 128 128 127 126 124 121 116 110 99 80 74 78 94 104 110 114 117 119 120 121 122 123 124 124 125 125 125 125 126 126 126 126 126 126 126 127 127 127 127 127 127 127 127 127 127 127 127 127 127 127 127 127 127 130 130 130 130 130 130 130 130 130 130 130 130 130 129 128 127 125 121 115 103 83 0 79 97 107 112 116 119 120 122 123 123 124 124 125 125 125 126 126 126 126 126 126 126 127 127 127 127 127 127 127 127 127 127 127 127 127 127 127 127 127 127 127 127 131 131 131 131 131 131 131 131 132 132 132 132 132 132 131 131 130 128 124 116 98 91 92 106 113 117 119 121 122 123 124 125 125 125 126 126 126 126 126 126 126 127 127 127 127 127 127 127 127 127 127 127 127 127 127 127 127 127 127 127 127 127 127 127 132 132 132 132 132 132 132 133 133 133 133 134 134 134 135 135 136 137 138 136 132 125 121 120 121 123 123 124 125 125 126 126 126 126 126 126 127 127 127 127 127 127 127 127 127 127 127 127 127 127 127 127 127 127 127 127 127 127 127 127 127 127 127 127 133 133 133 133 133 133 133 134 134 134 135 135 136 137 138 140 142 146 152 165 165 158 141 134 130 129 128 127 127 127 127 127 127 127 127 127 127 127 127 127 127 127 127 127 127 127 127 127 127 127 127 127 127 127 127 127 127 127 127 127 127 127 127 127 133 133 133 133 134 134 134 135 135 135 136 137 138 139 141 143 147 152 162 178 255 174 155 143 137 134 132 131 130 129 129 128 128 128 128 128 128 128 127 127 127 127 127 127 127 127 127 127 127 127 127 127 127 127 127 127 127 127 127 127 127 127 127 127 134 134 134 134 134 135 135 135 136 137 137 138 140 141 143 146 150 155 164 180 183 177 159 149 142 138 135 133 132 131 130 130 129 129 129 128 128 128 128 128 128 128 127 127 127 127 127 127 127 127 127 127 127 127 127 127 127 127 127 127 127 127 127 127 134 134 135 135 135 135 136 136 137 138 139 140 141 143 145 148 151 156 162 168 170 166 158 151 145 141 138 136 134 133 132 131 130 130 129 129 129 128 128 128 128 128 128 128 128 127 127 127 127 127 127 127 127 127 127 127 127 127 127 127 127 127 127 127 135 135 135 135 136 136 136 137 138 138 139 141 142 144 146 148 151 155 159 161 162 160 156 151 146 142 140 137 135 134 133 132 131 130 130 129 129 129 129 128 128 128 128 128 128 128 127 127 127 127 127 127 127 127 127 127 127 127 127 127 127 127 127 127 135 135 135 136 136 136 137 137 138 139 140 141 143 144 146 148 151 153 156 157 157 156 153 150 146 143 141 138 137 135 134 133 132 131 130 130 129 129 129 129 128 128 128 128 128 128 128 128 127 127 127 127 127 127 127 127 127 127 127 127 127 127 127 127 136 136 136 136 136 137 137 138 139 140 141 142 143 145 147 148 150 152 154 155 154 153 151 149 146 144 141 139 137 136 134 133 132 132 131 130 130 129 129 129 128 128 128 128 128 128 128 128 128 127 127 127 127 127 127 127 127 127 127 127 127 127 127 127 136 136 136 136 137 137 138 138 139 140 141 142 144 145 147 148 150 151 152 153 153 152 150 148 146 144 142 140 138 136 135 134 133 132 131 131 130 130 129 129 129 128 128 128 128 128 128 128 128 128 127 127 127 127 127 127 127 127 127 127 127 127 127 127 136 136 136 136 137 137 138 138 139 140 141 142 144 145 147 148 150 151 152 152 152 151 150 148 146 144 142 140 138 137 135 134 133 132 131 131 130 130 129 129 129 128 128 128 128 128 128 128 128 128 127 127 127 127 127 127 127 127 127 127 127 127 127 127 136 136 136 137 137 137 138 139 139 140 141 142 144 145 147 148 149 150 151 152 151 151 149 148 146 144 142 140 138 137 135 134 133 132 131 131 130 130 129 129 129 128 128 128 128 128 128 128 128 128 127 127 127 127 127 127 127 127 127 127 127 127 127 127 